<?xml version="1.0" encoding="iso-8859-1"?>
<!-- Uploaded to: SVG Repo, www.svgrepo.com, Generator: SVG Repo Mixer Tools -->
<svg fill="#000000" version="1.1" id="Layer_1" xmlns="http://www.w3.org/2000/svg" xmlns:xlink="http://www.w3.org/1999/xlink" 
	 viewBox="0 0 512 512" xml:space="preserve">
<g>
	<g>
		<g>
			<path d="M96.051,0v512h319.898V0H96.051z M111.789,496.262V15.738h288.423v480.525H111.789z"/>
			<path d="M375.929,40.021H136.073v167.818h239.856V40.021z M360.191,192.102H151.811V55.759h208.381V192.102z"/>
			<path d="M192.102,367.923h47.756v-47.754h-47.756V367.923z M207.84,335.907h16.28v16.279h-16.28V335.907z"/>
			<path d="M136.073,367.923h47.756v-47.754h-47.756V367.923z M151.811,335.907h16.28v16.279h-16.28V335.907z"/>
			<path d="M248.133,367.923h47.754v-47.754h-47.754V367.923z M263.87,335.907L263.87,335.907h16.279v16.279H263.87V335.907z"/>
			<path d="M192.102,423.954h47.756v-47.754h-47.756V423.954z M207.84,391.937h16.28v16.279h-16.28V391.937z"/>
			<path d="M136.073,423.954h47.756v-47.754h-47.756V423.954z M151.811,391.937h16.28v16.279h-16.28V391.937z"/>
			<path d="M248.133,423.954h47.754v-47.754h-47.754V423.954z M263.87,391.937L263.87,391.937h16.279v16.279H263.87V391.937z"/>
			<path d="M192.102,479.983h47.756v-47.754h-47.756V479.983z M207.84,447.966h16.28v16.279h-16.28V447.966z"/>
			<path d="M136.073,479.983h47.756v-47.754h-47.756V479.983z M151.811,447.966h16.28v16.279h-16.28V447.966z"/>
			<path d="M248.133,479.983h47.754v-47.754h-47.754V479.983z M263.87,447.966L263.87,447.966h16.279v16.279H263.87V447.966z"/>
			<path d="M319.9,224.119h-87.775v47.754H319.9V224.119z M304.162,256.135h-56.3v-16.279h56.3V256.135z"/>
			<path d="M304.162,367.923h79.771v-47.754h-79.771V367.923z M319.9,335.907h48.296v16.279H319.9V335.907z"/>
			<path d="M304.162,423.954h79.771v-47.754h-79.771V423.954z M319.9,391.937h48.296v16.279H319.9V391.937z"/>
			<path d="M304.162,479.983h79.771v-47.754h-79.771V479.983z M319.9,447.966h48.296v16.279H319.9V447.966z"/>
			<path d="M223.848,224.119L223.848,224.119h-87.776v47.754h87.776V224.119z M208.111,256.135h-56.3v-16.279h56.3V256.135z"/>
			<rect x="135.932" y="288.147" width="16.008" height="15.738"/>
			<rect x="167.953" y="288.147" width="16.009" height="15.738"/>
			<rect x="199.974" y="288.147" width="16.008" height="15.738"/>
			<rect x="231.985" y="288.147" width="16.008" height="15.738"/>
			<rect x="264.006" y="288.147" width="16.008" height="15.738"/>
			<rect x="296.016" y="288.147" width="16.009" height="15.738"/>
			<rect x="328.037" y="288.147" width="16.008" height="15.738"/>
			<rect x="360.058" y="288.147" width="16.008" height="15.738"/>
			<path d="M375.929,224.119h-47.756v47.754h47.756V224.119z M360.191,256.135h-16.28v-16.279h16.28V256.135z"/>
			<rect x="264.006" y="72.037" width="16.008" height="15.738"/>
			<rect x="296.016" y="72.037" width="16.009" height="15.738"/>
			<rect x="328.037" y="72.037" width="16.008" height="15.738"/>
			<rect x="167.953" y="160.084" width="80.042" height="15.738"/>
			<rect x="264.006" y="160.084" width="32.017" height="15.738"/>
			<rect x="312.027" y="160.084" width="32.017" height="15.738"/>
		</g>
	</g>
</g>
</svg>